<mxfile host="Electron" modified="2024-03-13T04:26:04.827Z" agent="Mozilla/5.0 (Windows NT 10.0; Win64; x64) AppleWebKit/537.36 (KHTML, like Gecko) draw.io/22.1.21 Chrome/120.0.6099.109 Electron/28.1.0 Safari/537.36" etag="3lpIz9T24qz2bFA_-zr6" version="22.1.21" type="device">
  <diagram name="Page-1" id="QADND8AO5TsqgUgaaTDw">
    <mxGraphModel dx="875" dy="558" grid="1" gridSize="10" guides="1" tooltips="1" connect="1" arrows="1" fold="1" page="0" pageScale="1" pageWidth="850" pageHeight="1100" math="0" shadow="0">
      <root>
        <mxCell id="0" />
        <mxCell id="1" parent="0" />
        <mxCell id="FJvChSFn0urWOvBvZW-5-3" value="" style="edgeStyle=orthogonalEdgeStyle;rounded=0;orthogonalLoop=1;jettySize=auto;html=1;" edge="1" parent="1" source="FJvChSFn0urWOvBvZW-5-1" target="FJvChSFn0urWOvBvZW-5-2">
          <mxGeometry relative="1" as="geometry" />
        </mxCell>
        <mxCell id="FJvChSFn0urWOvBvZW-5-5" value="" style="edgeStyle=orthogonalEdgeStyle;rounded=0;orthogonalLoop=1;jettySize=auto;html=1;" edge="1" parent="1" source="FJvChSFn0urWOvBvZW-5-1" target="FJvChSFn0urWOvBvZW-5-4">
          <mxGeometry relative="1" as="geometry" />
        </mxCell>
        <mxCell id="FJvChSFn0urWOvBvZW-5-9" value="" style="edgeStyle=orthogonalEdgeStyle;rounded=0;orthogonalLoop=1;jettySize=auto;html=1;" edge="1" parent="1" source="FJvChSFn0urWOvBvZW-5-1" target="FJvChSFn0urWOvBvZW-5-8">
          <mxGeometry relative="1" as="geometry" />
        </mxCell>
        <mxCell id="FJvChSFn0urWOvBvZW-5-13" value="" style="edgeStyle=orthogonalEdgeStyle;rounded=0;orthogonalLoop=1;jettySize=auto;html=1;" edge="1" parent="1" source="FJvChSFn0urWOvBvZW-5-1" target="FJvChSFn0urWOvBvZW-5-12">
          <mxGeometry relative="1" as="geometry" />
        </mxCell>
        <mxCell id="FJvChSFn0urWOvBvZW-5-1" value="&lt;b&gt;&lt;font style=&quot;font-size: 13px;&quot;&gt;School ERP System&lt;/font&gt;&lt;/b&gt;" style="rounded=0;whiteSpace=wrap;html=1;" vertex="1" parent="1">
          <mxGeometry x="360" y="320" width="120" height="60" as="geometry" />
        </mxCell>
        <mxCell id="FJvChSFn0urWOvBvZW-5-2" value="&lt;b&gt;Admin&lt;/b&gt;" style="whiteSpace=wrap;html=1;rounded=0;" vertex="1" parent="1">
          <mxGeometry x="360" y="210" width="120" height="30" as="geometry" />
        </mxCell>
        <mxCell id="FJvChSFn0urWOvBvZW-5-4" value="&lt;b&gt;Teachers&lt;/b&gt;" style="whiteSpace=wrap;html=1;rounded=0;" vertex="1" parent="1">
          <mxGeometry x="560" y="335" width="120" height="30" as="geometry" />
        </mxCell>
        <mxCell id="FJvChSFn0urWOvBvZW-5-6" value="" style="edgeStyle=orthogonalEdgeStyle;rounded=0;orthogonalLoop=1;jettySize=auto;html=1;exitX=0.75;exitY=0;exitDx=0;exitDy=0;entryX=0.5;entryY=1;entryDx=0;entryDy=0;" edge="1" parent="1" source="FJvChSFn0urWOvBvZW-5-1" target="FJvChSFn0urWOvBvZW-5-7">
          <mxGeometry relative="1" as="geometry">
            <mxPoint x="490" y="360" as="sourcePoint" />
            <mxPoint x="540" y="280" as="targetPoint" />
          </mxGeometry>
        </mxCell>
        <mxCell id="FJvChSFn0urWOvBvZW-5-7" value="&lt;b&gt;Students&lt;/b&gt;" style="whiteSpace=wrap;html=1;rounded=0;" vertex="1" parent="1">
          <mxGeometry x="520" y="240" width="120" height="30" as="geometry" />
        </mxCell>
        <mxCell id="FJvChSFn0urWOvBvZW-5-8" value="&lt;b&gt;Transport deparmnet&lt;/b&gt;" style="whiteSpace=wrap;html=1;rounded=0;" vertex="1" parent="1">
          <mxGeometry x="355" y="460" width="130" height="30" as="geometry" />
        </mxCell>
        <mxCell id="FJvChSFn0urWOvBvZW-5-12" value="&lt;b&gt;Fees Department&lt;/b&gt;" style="whiteSpace=wrap;html=1;rounded=0;" vertex="1" parent="1">
          <mxGeometry x="160" y="335" width="120" height="30" as="geometry" />
        </mxCell>
        <mxCell id="FJvChSFn0urWOvBvZW-5-14" value="" style="edgeStyle=orthogonalEdgeStyle;rounded=0;orthogonalLoop=1;jettySize=auto;html=1;exitX=0.75;exitY=1;exitDx=0;exitDy=0;" edge="1" parent="1" source="FJvChSFn0urWOvBvZW-5-1">
          <mxGeometry relative="1" as="geometry">
            <mxPoint x="490" y="360" as="sourcePoint" />
            <mxPoint x="570" y="440" as="targetPoint" />
          </mxGeometry>
        </mxCell>
        <mxCell id="FJvChSFn0urWOvBvZW-5-15" value="&lt;b&gt;Hostel department&lt;/b&gt;" style="whiteSpace=wrap;html=1;rounded=0;" vertex="1" parent="1">
          <mxGeometry x="520" y="440" width="120" height="30" as="geometry" />
        </mxCell>
        <mxCell id="FJvChSFn0urWOvBvZW-5-16" value="" style="edgeStyle=orthogonalEdgeStyle;rounded=0;orthogonalLoop=1;jettySize=auto;html=1;exitX=0.25;exitY=1;exitDx=0;exitDy=0;" edge="1" parent="1" source="FJvChSFn0urWOvBvZW-5-1">
          <mxGeometry relative="1" as="geometry">
            <mxPoint x="460" y="390" as="sourcePoint" />
            <mxPoint x="280" y="440" as="targetPoint" />
          </mxGeometry>
        </mxCell>
        <mxCell id="FJvChSFn0urWOvBvZW-5-17" value="" style="edgeStyle=orthogonalEdgeStyle;rounded=0;orthogonalLoop=1;jettySize=auto;html=1;exitX=0.25;exitY=0;exitDx=0;exitDy=0;" edge="1" parent="1" source="FJvChSFn0urWOvBvZW-5-1">
          <mxGeometry relative="1" as="geometry">
            <mxPoint x="400" y="390" as="sourcePoint" />
            <mxPoint x="250" y="270" as="targetPoint" />
          </mxGeometry>
        </mxCell>
        <mxCell id="FJvChSFn0urWOvBvZW-5-18" value="&lt;b&gt;Admission departmet&lt;/b&gt;" style="whiteSpace=wrap;html=1;rounded=0;" vertex="1" parent="1">
          <mxGeometry x="200" y="440" width="130" height="30" as="geometry" />
        </mxCell>
        <mxCell id="FJvChSFn0urWOvBvZW-5-19" value="&lt;b&gt;Exam Section&lt;/b&gt;" style="whiteSpace=wrap;html=1;rounded=0;" vertex="1" parent="1">
          <mxGeometry x="190" y="240" width="120" height="30" as="geometry" />
        </mxCell>
        <mxCell id="FJvChSFn0urWOvBvZW-5-21" value="" style="swimlane;startSize=0;" vertex="1" parent="1">
          <mxGeometry x="120" y="170" width="600" height="350" as="geometry" />
        </mxCell>
      </root>
    </mxGraphModel>
  </diagram>
</mxfile>
